<svg xmlns="http://www.w3.org/2000/svg" width="1600" height="900" viewBox="0 0 1600 900">
  <rect width="1600" height="900" fill="#0d1b2a"/>
  <rect x="0" y="0" width="1600" height="120" fill="#1b263b"/>
  <text x="60" y="72" fill="#e0e1dd" font-family="Arial, sans-serif" font-size="44" font-weight="700">SparkyCheck - Product Overview</text>
  <text x="60" y="102" fill="#9fb3c8" font-family="Arial, sans-serif" font-size="22">Electrical verification assistant for field and training workflows</text>

  <rect x="70" y="170" rx="24" ry="24" width="680" height="660" fill="#111827" stroke="#415a77" stroke-width="4"/>
  <rect x="120" y="220" rx="16" ry="16" width="580" height="520" fill="#1f2937" stroke="#778da9" stroke-width="3"/>
  <text x="145" y="262" fill="#e0e1dd" font-family="Arial, sans-serif" font-size="30" font-weight="700">SparkyCheck</text>
  <text x="145" y="292" fill="#f4a261" font-family="Arial, sans-serif" font-size="20">Field mode</text>

  <rect x="145" y="320" rx="10" ry="10" width="530" height="78" fill="#2d6a4f"/>
  <text x="170" y="368" fill="#ffffff" font-family="Arial, sans-serif" font-size="28">Start verification</text>

  <rect x="145" y="418" rx="10" ry="10" width="530" height="78" fill="#2f3e46"/>
  <text x="170" y="466" fill="#ffffff" font-family="Arial, sans-serif" font-size="28">View reports</text>

  <rect x="145" y="516" rx="10" ry="10" width="530" height="78" fill="#2f3e46"/>
  <text x="170" y="564" fill="#ffffff" font-family="Arial, sans-serif" font-size="28">Settings</text>

  <text x="145" y="640" fill="#9fb3c8" font-family="Arial, sans-serif" font-size="20">Hidden admin entry via splash hold</text>
  <text x="145" y="668" fill="#9fb3c8" font-family="Arial, sans-serif" font-size="20">PIN-protected settings in training context</text>

  <rect x="810" y="170" rx="24" ry="24" width="720" height="660" fill="#1b263b" stroke="#778da9" stroke-width="3"/>
  <text x="850" y="228" fill="#e0e1dd" font-family="Arial, sans-serif" font-size="34" font-weight="700">Core capabilities</text>

  <circle cx="860" cy="280" r="8" fill="#f4a261"/>
  <text x="885" y="288" fill="#e0e1dd" font-family="Arial, sans-serif" font-size="26">Two operating modes: Field and Training</text>
  <circle cx="860" cy="330" r="8" fill="#f4a261"/>
  <text x="885" y="338" fill="#e0e1dd" font-family="Arial, sans-serif" font-size="26">Guided test steps with pass/fail validation</text>
  <circle cx="860" cy="380" r="8" fill="#f4a261"/>
  <text x="885" y="388" fill="#e0e1dd" font-family="Arial, sans-serif" font-size="26">Manual numeric entry + explicit unit selection</text>
  <circle cx="860" cy="430" r="8" fill="#f4a261"/>
  <text x="885" y="438" fill="#e0e1dd" font-family="Arial, sans-serif" font-size="26">Training telemetry (email/cloud) is optional</text>
  <circle cx="860" cy="480" r="8" fill="#f4a261"/>
  <text x="885" y="488" fill="#e0e1dd" font-family="Arial, sans-serif" font-size="26">Offline queue with auto-flush on reconnect</text>
  <circle cx="860" cy="530" r="8" fill="#f4a261"/>
  <text x="885" y="538" fill="#e0e1dd" font-family="Arial, sans-serif" font-size="26">OTA update checks and controlled install flow</text>
  <circle cx="860" cy="580" r="8" fill="#f4a261"/>
  <text x="885" y="588" fill="#e0e1dd" font-family="Arial, sans-serif" font-size="26">SWP procedures for motor/appliance/heater</text>
  <circle cx="860" cy="630" r="8" fill="#f4a261"/>
  <text x="885" y="638" fill="#e0e1dd" font-family="Arial, sans-serif" font-size="26">SD provisioning support for fleet deployment</text>

  <rect x="850" y="700" rx="10" ry="10" width="640" height="90" fill="#0f172a" stroke="#415a77" stroke-width="2"/>
  <text x="880" y="748" fill="#9fb3c8" font-family="Arial, sans-serif" font-size="24">Presentation mockup generated from current firmware feature set.</text>
</svg>

